<?xml version="1.0" encoding="UTF-8" ?>
<svg version="1.1" width="196" height="64" xmlns="http://www.w3.org/2000/svg" shape-rendering="crispEdges">
<rect x="25" y="13" width="1" height="1" fill="#4B692F" />
<rect x="26" y="13" width="9" height="1" fill="#6ABE30" />
<rect x="58" y="13" width="9" height="1" fill="#99E550" />
<rect x="87" y="13" width="9" height="1" fill="#99E550" />
<rect x="23" y="14" width="1" height="1" fill="#4B692F" />
<rect x="24" y="14" width="2" height="1" fill="#6ABE30" />
<rect x="26" y="14" width="9" height="1" fill="#FFFFFF" />
<rect x="35" y="14" width="3" height="1" fill="#6ABE30" />
<rect x="58" y="14" width="1" height="37" fill="#99E550" />
<rect x="59" y="14" width="7" height="1" fill="#78D12E" />
<rect x="66" y="14" width="1" height="29" fill="#99E550" />
<rect x="87" y="14" width="1" height="8" fill="#99E550" />
<rect x="88" y="14" width="7" height="1" fill="#78D12E" />
<rect x="95" y="14" width="1" height="8" fill="#99E550" />
<rect x="21" y="15" width="1" height="1" fill="#4B692F" />
<rect x="22" y="15" width="2" height="1" fill="#6ABE30" />
<rect x="24" y="15" width="2" height="1" fill="#FFFFFF" />
<rect x="26" y="15" width="9" height="5" fill="#99E550" />
<rect x="35" y="15" width="3" height="1" fill="#FFFFFF" />
<rect x="38" y="15" width="2" height="1" fill="#6ABE30" />
<rect x="59" y="15" width="1" height="35" fill="#78D12E" />
<rect x="60" y="15" width="5" height="34" fill="#FFFFFF" />
<rect x="65" y="15" width="1" height="29" fill="#78D12E" />
<rect x="88" y="15" width="1" height="6" fill="#78D12E" />
<rect x="89" y="15" width="5" height="5" fill="#FFFFFF" />
<rect x="94" y="15" width="1" height="6" fill="#78D12E" />
<rect x="20" y="16" width="1" height="1" fill="#4B692F" />
<rect x="21" y="16" width="1" height="1" fill="#6ABE30" />
<rect x="22" y="16" width="2" height="1" fill="#FFFFFF" />
<rect x="24" y="16" width="2" height="3" fill="#99E550" />
<rect x="35" y="16" width="1" height="1" fill="#99E550" />
<rect x="36" y="16" width="1" height="1" fill="#78D12E" />
<rect x="37" y="16" width="3" height="1" fill="#FFFFFF" />
<rect x="40" y="16" width="1" height="1" fill="#6ABE30" />
<rect x="19" y="17" width="1" height="1" fill="#4B692F" />
<rect x="20" y="17" width="1" height="1" fill="#6ABE30" />
<rect x="21" y="17" width="1" height="3" fill="#FFFFFF" />
<rect x="22" y="17" width="1" height="1" fill="#78D12E" />
<rect x="23" y="17" width="1" height="1" fill="#99E550" />
<rect x="35" y="17" width="1" height="3" fill="#78D12E" />
<rect x="36" y="17" width="3" height="1" fill="#FFFFFF" />
<rect x="39" y="17" width="1" height="1" fill="#78D12E" />
<rect x="40" y="17" width="1" height="1" fill="#FFFFFF" />
<rect x="41" y="17" width="2" height="1" fill="#6ABE30" />
<rect x="17" y="18" width="2" height="1" fill="#4B692F" />
<rect x="19" y="18" width="1" height="1" fill="#6ABE30" />
<rect x="20" y="18" width="1" height="1" fill="#FFFFFF" />
<rect x="22" y="18" width="1" height="3" fill="#FFFFFF" />
<rect x="23" y="18" width="1" height="1" fill="#78D12E" />
<rect x="36" y="18" width="2" height="3" fill="#FFFFFF" />
<rect x="38" y="18" width="1" height="3" fill="#78D12E" />
<rect x="39" y="18" width="2" height="8" fill="#99E550" />
<rect x="41" y="18" width="2" height="1" fill="#FFFFFF" />
<rect x="43" y="18" width="1" height="1" fill="#6ABE30" />
<rect x="16" y="19" width="2" height="1" fill="#4B692F" />
<rect x="18" y="19" width="1" height="1" fill="#6ABE30" />
<rect x="19" y="19" width="1" height="1" fill="#FFFFFF" />
<rect x="20" y="19" width="1" height="1" fill="#78D12E" />
<rect x="23" y="19" width="1" height="3" fill="#FFFFFF" />
<rect x="24" y="19" width="1" height="1" fill="#78D12E" />
<rect x="25" y="19" width="1" height="1" fill="#99E550" />
<rect x="41" y="19" width="2" height="6" fill="#99E550" />
<rect x="43" y="19" width="1" height="2" fill="#FFFFFF" />
<rect x="44" y="19" width="1" height="1" fill="#6ABE30" />
<rect x="15" y="20" width="2" height="1" fill="#4B692F" />
<rect x="17" y="20" width="1" height="1" fill="#6ABE30" />
<rect x="18" y="20" width="1" height="1" fill="#FFFFFF" />
<rect x="19" y="20" width="1" height="1" fill="#78D12E" />
<rect x="20" y="20" width="1" height="9" fill="#99E550" />
<rect x="21" y="20" width="1" height="1" fill="#78D12E" />
<rect x="24" y="20" width="1" height="3" fill="#FFFFFF" />
<rect x="25" y="20" width="1" height="1" fill="#78D12E" />
<rect x="26" y="20" width="8" height="1" fill="#99E550" />
<rect x="34" y="20" width="1" height="2" fill="#78D12E" />
<rect x="35" y="20" width="1" height="6" fill="#FFFFFF" />
<rect x="44" y="20" width="1" height="1" fill="#FFFFFF" />
<rect x="45" y="20" width="1" height="1" fill="#6ABE30" />
<rect x="89" y="20" width="5" height="1" fill="#78D12E" />
<rect x="14" y="21" width="2" height="2" fill="#4B692F" />
<rect x="16" y="21" width="1" height="2" fill="#6ABE30" />
<rect x="17" y="21" width="1" height="2" fill="#FFFFFF" />
<rect x="18" y="21" width="1" height="2" fill="#78D12E" />
<rect x="19" y="21" width="1" height="8" fill="#99E550" />
<rect x="21" y="21" width="1" height="8" fill="#99E550" />
<rect x="22" y="21" width="1" height="1" fill="#78D12E" />
<rect x="25" y="21" width="1" height="3" fill="#FFFFFF" />
<rect x="26" y="21" width="1" height="1" fill="#78D12E" />
<rect x="27" y="21" width="7" height="1" fill="#99E550" />
<rect x="36" y="21" width="1" height="2" fill="#FFFFFF" />
<rect x="37" y="21" width="1" height="2" fill="#78D12E" />
<rect x="38" y="21" width="1" height="5" fill="#99E550" />
<rect x="43" y="21" width="2" height="3" fill="#99E550" />
<rect x="45" y="21" width="1" height="1" fill="#FFFFFF" />
<rect x="46" y="21" width="1" height="1" fill="#6ABE30" />
<rect x="88" y="21" width="7" height="1" fill="#99E550" />
<rect x="13" y="22" width="1" height="18" fill="#4B692F" />
<rect x="22" y="22" width="1" height="7" fill="#99E550" />
<rect x="23" y="22" width="1" height="1" fill="#78D12E" />
<rect x="26" y="22" width="1" height="3" fill="#FFFFFF" />
<rect x="27" y="22" width="1" height="1" fill="#78D12E" />
<rect x="28" y="22" width="5" height="1" fill="#99E550" />
<rect x="33" y="22" width="1" height="3" fill="#78D12E" />
<rect x="34" y="22" width="1" height="17" fill="#FFFFFF" />
<rect x="45" y="22" width="1" height="2" fill="#99E550" />
<rect x="46" y="22" width="1" height="1" fill="#FFFFFF" />
<rect x="47" y="22" width="1" height="1" fill="#6ABE30" />
<rect x="14" y="23" width="1" height="18" fill="#4B692F" />
<rect x="15" y="23" width="1" height="9" fill="#6ABE30" />
<rect x="16" y="23" width="1" height="9" fill="#FFFFFF" />
<rect x="17" y="23" width="1" height="7" fill="#78D12E" />
<rect x="18" y="23" width="1" height="6" fill="#99E550" />
<rect x="23" y="23" width="1" height="6" fill="#99E550" />
<rect x="24" y="23" width="1" height="1" fill="#78D12E" />
<rect x="27" y="23" width="1" height="3" fill="#FFFFFF" />
<rect x="28" y="23" width="1" height="1" fill="#78D12E" />
<rect x="29" y="23" width="4" height="1" fill="#99E550" />
<rect x="36" y="23" width="1" height="3" fill="#78D12E" />
<rect x="37" y="23" width="1" height="4" fill="#99E550" />
<rect x="46" y="23" width="1" height="1" fill="#99E550" />
<rect x="47" y="23" width="1" height="4" fill="#FFFFFF" />
<rect x="48" y="23" width="1" height="3" fill="#6ABE30" />
<rect x="87" y="23" width="9" height="1" fill="#99E550" />
<rect x="97" y="23" width="23" height="1" fill="#99E550" />
<rect x="131" y="23" width="17" height="1" fill="#99E550" />
<rect x="12" y="24" width="1" height="14" fill="#4B692F" />
<rect x="24" y="24" width="1" height="4" fill="#99E550" />
<rect x="25" y="24" width="1" height="1" fill="#78D12E" />
<rect x="28" y="24" width="1" height="3" fill="#FFFFFF" />
<rect x="29" y="24" width="1" height="1" fill="#78D12E" />
<rect x="30" y="24" width="3" height="1" fill="#99E550" />
<rect x="43" y="24" width="1" height="1" fill="#99E550" />
<rect x="44" y="24" width="3" height="1" fill="#78D12E" />
<rect x="87" y="24" width="1" height="27" fill="#99E550" />
<rect x="88" y="24" width="7" height="1" fill="#78D12E" />
<rect x="95" y="24" width="1" height="27" fill="#99E550" />
<rect x="97" y="24" width="1" height="27" fill="#99E550" />
<rect x="98" y="24" width="12" height="1" fill="#78D12E" />
<rect x="110" y="24" width="2" height="5" fill="#99E550" />
<rect x="112" y="24" width="7" height="1" fill="#78D12E" />
<rect x="119" y="24" width="1" height="5" fill="#99E550" />
<rect x="131" y="24" width="1" height="5" fill="#99E550" />
<rect x="132" y="24" width="16" height="1" fill="#78D12E" />
<rect x="25" y="25" width="1" height="3" fill="#99E550" />
<rect x="26" y="25" width="1" height="1" fill="#78D12E" />
<rect x="29" y="25" width="1" height="3" fill="#FFFFFF" />
<rect x="30" y="25" width="1" height="1" fill="#78D12E" />
<rect x="31" y="25" width="1" height="1" fill="#99E550" />
<rect x="32" y="25" width="1" height="3" fill="#78D12E" />
<rect x="33" y="25" width="1" height="10" fill="#FFFFFF" />
<rect x="41" y="25" width="3" height="1" fill="#78D12E" />
<rect x="44" y="25" width="3" height="2" fill="#FFFFFF" />
<rect x="88" y="25" width="1" height="25" fill="#78D12E" />
<rect x="89" y="25" width="5" height="24" fill="#FFFFFF" />
<rect x="94" y="25" width="1" height="25" fill="#78D12E" />
<rect x="98" y="25" width="1" height="25" fill="#78D12E" />
<rect x="99" y="25" width="10" height="5" fill="#FFFFFF" />
<rect x="109" y="25" width="1" height="5" fill="#78D12E" />
<rect x="112" y="25" width="1" height="5" fill="#78D12E" />
<rect x="113" y="25" width="5" height="5" fill="#FFFFFF" />
<rect x="118" y="25" width="1" height="5" fill="#78D12E" />
<rect x="132" y="25" width="1" height="5" fill="#78D12E" />
<rect x="133" y="25" width="14" height="5" fill="#FFFFFF" />
<rect x="147" y="25" width="1" height="5" fill="#78D12E" />
<rect x="26" y="26" width="1" height="2" fill="#99E550" />
<rect x="27" y="26" width="1" height="1" fill="#78D12E" />
<rect x="30" y="26" width="1" height="2" fill="#FFFFFF" />
<rect x="31" y="26" width="1" height="1" fill="#78D12E" />
<rect x="35" y="26" width="1" height="2" fill="#78D12E" />
<rect x="36" y="26" width="1" height="1" fill="#99E550" />
<rect x="38" y="26" width="3" height="1" fill="#78D12E" />
<rect x="41" y="26" width="3" height="2" fill="#FFFFFF" />
<rect x="48" y="26" width="1" height="3" fill="#FFFFFF" />
<rect x="49" y="26" width="1" height="3" fill="#6ABE30" />
<rect x="27" y="27" width="1" height="1" fill="#99E550" />
<rect x="28" y="27" width="1" height="2" fill="#78D12E" />
<rect x="31" y="27" width="1" height="7" fill="#FFFFFF" />
<rect x="36" y="27" width="2" height="1" fill="#78D12E" />
<rect x="38" y="27" width="3" height="2" fill="#FFFFFF" />
<rect x="44" y="27" width="1" height="1" fill="#FFFFFF" />
<rect x="45" y="27" width="3" height="1" fill="#78D12E" />
<rect x="24" y="28" width="4" height="1" fill="#78D12E" />
<rect x="29" y="28" width="2" height="1" fill="#78D12E" />
<rect x="32" y="28" width="1" height="5" fill="#FFFFFF" />
<rect x="35" y="28" width="3" height="2" fill="#FFFFFF" />
<rect x="41" y="28" width="1" height="1" fill="#FFFFFF" />
<rect x="42" y="28" width="3" height="1" fill="#78D12E" />
<rect x="45" y="28" width="3" height="7" fill="#99E550" />
<rect x="120" y="28" width="5" height="1" fill="#99E550" />
<rect x="126" y="28" width="5" height="1" fill="#99E550" />
<rect x="148" y="28" width="6" height="1" fill="#99E550" />
<rect x="18" y="29" width="6" height="1" fill="#78D12E" />
<rect x="24" y="29" width="7" height="2" fill="#FFFFFF" />
<rect x="38" y="29" width="1" height="1" fill="#FFFFFF" />
<rect x="39" y="29" width="3" height="1" fill="#78D12E" />
<rect x="42" y="29" width="3" height="4" fill="#99E550" />
<rect x="48" y="29" width="1" height="7" fill="#99E550" />
<rect x="49" y="29" width="1" height="2" fill="#FFFFFF" />
<rect x="50" y="29" width="1" height="2" fill="#6ABE30" />
<rect x="110" y="29" width="2" height="1" fill="#78D12E" />
<rect x="119" y="29" width="5" height="1" fill="#78D12E" />
<rect x="124" y="29" width="1" height="22" fill="#99E550" />
<rect x="126" y="29" width="1" height="17" fill="#99E550" />
<rect x="127" y="29" width="5" height="1" fill="#78D12E" />
<rect x="148" y="29" width="5" height="1" fill="#78D12E" />
<rect x="153" y="29" width="1" height="12" fill="#99E550" />
<rect x="17" y="30" width="7" height="2" fill="#FFFFFF" />
<rect x="35" y="30" width="1" height="3" fill="#FFFFFF" />
<rect x="36" y="30" width="3" height="1" fill="#78D12E" />
<rect x="39" y="30" width="3" height="2" fill="#99E550" />
<rect x="99" y="30" width="5" height="19" fill="#FFFFFF" />
<rect x="104" y="30" width="5" height="1" fill="#78D12E" />
<rect x="109" y="30" width="5" height="10" fill="#FFFFFF" />
<rect x="114" y="30" width="4" height="1" fill="#78D12E" />
<rect x="118" y="30" width="5" height="19" fill="#FFFFFF" />
<rect x="123" y="30" width="1" height="20" fill="#78D12E" />
<rect x="127" y="30" width="1" height="15" fill="#78D12E" />
<rect x="128" y="30" width="5" height="14" fill="#FFFFFF" />
<rect x="133" y="30" width="14" height="1" fill="#78D12E" />
<rect x="147" y="30" width="5" height="9" fill="#FFFFFF" />
<rect x="152" y="30" width="1" height="10" fill="#78D12E" />
<rect x="24" y="31" width="1" height="1" fill="#FFFFFF" />
<rect x="25" y="31" width="6" height="1" fill="#78D12E" />
<rect x="36" y="31" width="1" height="3" fill="#FFFFFF" />
<rect x="37" y="31" width="2" height="1" fill="#78D12E" />
<rect x="49" y="31" width="1" height="6" fill="#99E550" />
<rect x="50" y="31" width="1" height="7" fill="#FFFFFF" />
<rect x="51" y="31" width="1" height="7" fill="#6ABE30" />
<rect x="104" y="31" width="1" height="19" fill="#78D12E" />
<rect x="105" y="31" width="3" height="1" fill="#99E550" />
<rect x="108" y="31" width="1" height="10" fill="#78D12E" />
<rect x="114" y="31" width="1" height="10" fill="#78D12E" />
<rect x="115" y="31" width="2" height="11" fill="#99E550" />
<rect x="117" y="31" width="1" height="19" fill="#78D12E" />
<rect x="133" y="31" width="1" height="3" fill="#78D12E" />
<rect x="134" y="31" width="12" height="2" fill="#99E550" />
<rect x="146" y="31" width="1" height="3" fill="#78D12E" />
<rect x="15" y="32" width="1" height="11" fill="#4B692F" />
<rect x="16" y="32" width="1" height="3" fill="#6ABE30" />
<rect x="17" y="32" width="1" height="3" fill="#FFFFFF" />
<rect x="18" y="32" width="7" height="1" fill="#78D12E" />
<rect x="25" y="32" width="3" height="1" fill="#99E550" />
<rect x="28" y="32" width="1" height="1" fill="#78D12E" />
<rect x="29" y="32" width="2" height="2" fill="#FFFFFF" />
<rect x="37" y="32" width="2" height="2" fill="#FFFFFF" />
<rect x="39" y="32" width="2" height="1" fill="#78D12E" />
<rect x="41" y="32" width="1" height="1" fill="#99E550" />
<rect x="105" y="32" width="1" height="19" fill="#99E550" />
<rect x="107" y="32" width="1" height="10" fill="#99E550" />
<rect x="18" y="33" width="9" height="1" fill="#99E550" />
<rect x="27" y="33" width="1" height="1" fill="#78D12E" />
<rect x="28" y="33" width="1" height="3" fill="#FFFFFF" />
<rect x="32" y="33" width="1" height="2" fill="#78D12E" />
<rect x="35" y="33" width="1" height="1" fill="#78D12E" />
<rect x="39" y="33" width="2" height="2" fill="#FFFFFF" />
<rect x="41" y="33" width="2" height="1" fill="#78D12E" />
<rect x="43" y="33" width="2" height="1" fill="#99E550" />
<rect x="134" y="33" width="12" height="1" fill="#78D12E" />
<rect x="18" y="34" width="8" height="1" fill="#99E550" />
<rect x="26" y="34" width="1" height="1" fill="#78D12E" />
<rect x="27" y="34" width="1" height="3" fill="#FFFFFF" />
<rect x="29" y="34" width="1" height="1" fill="#FFFFFF" />
<rect x="30" y="34" width="2" height="1" fill="#78D12E" />
<rect x="35" y="34" width="1" height="10" fill="#FFFFFF" />
<rect x="36" y="34" width="2" height="1" fill="#78D12E" />
<rect x="38" y="34" width="1" height="1" fill="#FFFFFF" />
<rect x="41" y="34" width="2" height="2" fill="#FFFFFF" />
<rect x="43" y="34" width="2" height="1" fill="#78D12E" />
<rect x="133" y="34" width="14" height="5" fill="#FFFFFF" />
<rect x="16" y="35" width="1" height="9" fill="#4B692F" />
<rect x="17" y="35" width="1" height="2" fill="#6ABE30" />
<rect x="18" y="35" width="1" height="2" fill="#FFFFFF" />
<rect x="19" y="35" width="6" height="1" fill="#99E550" />
<rect x="25" y="35" width="1" height="1" fill="#78D12E" />
<rect x="26" y="35" width="1" height="3" fill="#FFFFFF" />
<rect x="29" y="35" width="1" height="1" fill="#78D12E" />
<rect x="30" y="35" width="3" height="11" fill="#99E550" />
<rect x="33" y="35" width="1" height="4" fill="#78D12E" />
<rect x="36" y="35" width="1" height="3" fill="#78D12E" />
<rect x="37" y="35" width="1" height="3" fill="#99E550" />
<rect x="38" y="35" width="2" height="1" fill="#78D12E" />
<rect x="40" y="35" width="1" height="1" fill="#FFFFFF" />
<rect x="43" y="35" width="2" height="2" fill="#FFFFFF" />
<rect x="45" y="35" width="2" height="1" fill="#78D12E" />
<rect x="47" y="35" width="1" height="1" fill="#99E550" />
<rect x="19" y="36" width="4" height="1" fill="#99E550" />
<rect x="23" y="36" width="2" height="1" fill="#78D12E" />
<rect x="25" y="36" width="1" height="3" fill="#FFFFFF" />
<rect x="28" y="36" width="1" height="1" fill="#78D12E" />
<rect x="29" y="36" width="1" height="10" fill="#99E550" />
<rect x="38" y="36" width="2" height="7" fill="#99E550" />
<rect x="40" y="36" width="2" height="1" fill="#78D12E" />
<rect x="42" y="36" width="1" height="1" fill="#FFFFFF" />
<rect x="45" y="36" width="2" height="2" fill="#FFFFFF" />
<rect x="47" y="36" width="2" height="1" fill="#78D12E" />
<rect x="17" y="37" width="1" height="8" fill="#4B692F" />
<rect x="18" y="37" width="1" height="2" fill="#6ABE30" />
<rect x="19" y="37" width="1" height="2" fill="#FFFFFF" />
<rect x="20" y="37" width="2" height="1" fill="#99E550" />
<rect x="22" y="37" width="1" height="1" fill="#78D12E" />
<rect x="23" y="37" width="2" height="2" fill="#FFFFFF" />
<rect x="27" y="37" width="1" height="1" fill="#78D12E" />
<rect x="28" y="37" width="1" height="8" fill="#99E550" />
<rect x="40" y="37" width="2" height="9" fill="#99E550" />
<rect x="42" y="37" width="2" height="1" fill="#78D12E" />
<rect x="44" y="37" width="1" height="1" fill="#FFFFFF" />
<rect x="47" y="37" width="2" height="2" fill="#FFFFFF" />
<rect x="49" y="37" width="1" height="1" fill="#78D12E" />
<rect x="20" y="38" width="2" height="1" fill="#78D12E" />
<rect x="22" y="38" width="1" height="4" fill="#FFFFFF" />
<rect x="26" y="38" width="1" height="1" fill="#78D12E" />
<rect x="27" y="38" width="1" height="7" fill="#99E550" />
<rect x="36" y="38" width="1" height="10" fill="#FFFFFF" />
<rect x="37" y="38" width="1" height="5" fill="#78D12E" />
<rect x="42" y="38" width="2" height="7" fill="#99E550" />
<rect x="44" y="38" width="2" height="1" fill="#78D12E" />
<rect x="46" y="38" width="1" height="1" fill="#FFFFFF" />
<rect x="49" y="38" width="1" height="1" fill="#FFFFFF" />
<rect x="50" y="38" width="1" height="1" fill="#6ABE30" />
<rect x="51" y="38" width="1" height="2" fill="#4B692F" />
<rect x="18" y="39" width="1" height="7" fill="#4B692F" />
<rect x="19" y="39" width="1" height="1" fill="#6ABE30" />
<rect x="20" y="39" width="2" height="1" fill="#FFFFFF" />
<rect x="23" y="39" width="1" height="1" fill="#FFFFFF" />
<rect x="24" y="39" width="2" height="1" fill="#78D12E" />
<rect x="26" y="39" width="1" height="6" fill="#99E550" />
<rect x="33" y="39" width="1" height="8" fill="#99E550" />
<rect x="34" y="39" width="1" height="5" fill="#78D12E" />
<rect x="44" y="39" width="2" height="5" fill="#99E550" />
<rect x="46" y="39" width="2" height="1" fill="#78D12E" />
<rect x="48" y="39" width="1" height="2" fill="#FFFFFF" />
<rect x="49" y="39" width="1" height="2" fill="#6ABE30" />
<rect x="50" y="39" width="1" height="3" fill="#4B692F" />
<rect x="133" y="39" width="19" height="1" fill="#78D12E" />
<rect x="19" y="40" width="1" height="7" fill="#4B692F" />
<rect x="20" y="40" width="1" height="1" fill="#6ABE30" />
<rect x="21" y="40" width="1" height="1" fill="#FFFFFF" />
<rect x="23" y="40" width="1" height="2" fill="#78D12E" />
<rect x="24" y="40" width="2" height="3" fill="#99E550" />
<rect x="46" y="40" width="2" height="1" fill="#99E550" />
<rect x="109" y="40" width="5" height="1" fill="#78D12E" />
<rect x="133" y="40" width="1" height="4" fill="#78D12E" />
<rect x="134" y="40" width="19" height="1" fill="#99E550" />
<rect x="20" y="41" width="1" height="7" fill="#4B692F" />
<rect x="21" y="41" width="1" height="1" fill="#6ABE30" />
<rect x="46" y="41" width="1" height="2" fill="#99E550" />
<rect x="47" y="41" width="1" height="2" fill="#FFFFFF" />
<rect x="48" y="41" width="1" height="2" fill="#6ABE30" />
<rect x="49" y="41" width="1" height="3" fill="#4B692F" />
<rect x="108" y="41" width="7" height="1" fill="#99E550" />
<rect x="21" y="42" width="1" height="7" fill="#4B692F" />
<rect x="22" y="42" width="1" height="1" fill="#6ABE30" />
<rect x="23" y="42" width="1" height="1" fill="#FFFFFF" />
<rect x="67" y="42" width="19" height="1" fill="#99E550" />
<rect x="116" y="42" width="1" height="9" fill="#99E550" />
<rect x="134" y="42" width="20" height="1" fill="#99E550" />
<rect x="22" y="43" width="1" height="7" fill="#4B692F" />
<rect x="23" y="43" width="1" height="1" fill="#6ABE30" />
<rect x="24" y="43" width="2" height="1" fill="#FFFFFF" />
<rect x="37" y="43" width="1" height="5" fill="#FFFFFF" />
<rect x="38" y="43" width="1" height="4" fill="#78D12E" />
<rect x="39" y="43" width="1" height="4" fill="#99E550" />
<rect x="46" y="43" width="1" height="1" fill="#FFFFFF" />
<rect x="47" y="43" width="1" height="1" fill="#6ABE30" />
<rect x="48" y="43" width="1" height="2" fill="#4B692F" />
<rect x="66" y="43" width="19" height="1" fill="#78D12E" />
<rect x="85" y="43" width="1" height="8" fill="#99E550" />
<rect x="134" y="43" width="19" height="1" fill="#78D12E" />
<rect x="153" y="43" width="1" height="8" fill="#99E550" />
<rect x="23" y="44" width="1" height="6" fill="#4B692F" />
<rect x="24" y="44" width="1" height="1" fill="#6ABE30" />
<rect x="25" y="44" width="1" height="1" fill="#FFFFFF" />
<rect x="34" y="44" width="1" height="3" fill="#99E550" />
<rect x="35" y="44" width="1" height="3" fill="#78D12E" />
<rect x="44" y="44" width="2" height="1" fill="#FFFFFF" />
<rect x="46" y="44" width="1" height="1" fill="#6ABE30" />
<rect x="47" y="44" width="1" height="2" fill="#4B692F" />
<rect x="65" y="44" width="19" height="5" fill="#FFFFFF" />
<rect x="84" y="44" width="1" height="6" fill="#78D12E" />
<rect x="128" y="44" width="5" height="1" fill="#78D12E" />
<rect x="133" y="44" width="19" height="5" fill="#FFFFFF" />
<rect x="152" y="44" width="1" height="6" fill="#78D12E" />
<rect x="24" y="45" width="1" height="5" fill="#4B692F" />
<rect x="25" y="45" width="1" height="1" fill="#6ABE30" />
<rect x="26" y="45" width="3" height="1" fill="#FFFFFF" />
<rect x="42" y="45" width="1" height="1" fill="#99E550" />
<rect x="43" y="45" width="1" height="1" fill="#FFFFFF" />
<rect x="44" y="45" width="2" height="1" fill="#6ABE30" />
<rect x="46" y="45" width="1" height="2" fill="#4B692F" />
<rect x="127" y="45" width="5" height="1" fill="#99E550" />
<rect x="132" y="45" width="1" height="5" fill="#78D12E" />
<rect x="25" y="46" width="1" height="5" fill="#4B692F" />
<rect x="26" y="46" width="3" height="1" fill="#6ABE30" />
<rect x="29" y="46" width="2" height="1" fill="#FFFFFF" />
<rect x="31" y="46" width="2" height="1" fill="#99E550" />
<rect x="40" y="46" width="1" height="1" fill="#99E550" />
<rect x="41" y="46" width="2" height="1" fill="#FFFFFF" />
<rect x="43" y="46" width="1" height="1" fill="#6ABE30" />
<rect x="44" y="46" width="2" height="2" fill="#4B692F" />
<rect x="131" y="46" width="1" height="5" fill="#99E550" />
<rect x="26" y="47" width="3" height="4" fill="#4B692F" />
<rect x="29" y="47" width="2" height="1" fill="#6ABE30" />
<rect x="31" y="47" width="5" height="1" fill="#FFFFFF" />
<rect x="38" y="47" width="3" height="1" fill="#FFFFFF" />
<rect x="41" y="47" width="2" height="1" fill="#6ABE30" />
<rect x="43" y="47" width="1" height="3" fill="#4B692F" />
<rect x="29" y="48" width="2" height="3" fill="#4B692F" />
<rect x="31" y="48" width="10" height="1" fill="#6ABE30" />
<rect x="41" y="48" width="2" height="2" fill="#4B692F" />
<rect x="44" y="48" width="1" height="1" fill="#4B692F" />
<rect x="31" y="49" width="10" height="2" fill="#4B692F" />
<rect x="60" y="49" width="24" height="1" fill="#78D12E" />
<rect x="89" y="49" width="5" height="1" fill="#78D12E" />
<rect x="99" y="49" width="5" height="1" fill="#78D12E" />
<rect x="118" y="49" width="5" height="1" fill="#78D12E" />
<rect x="133" y="49" width="19" height="1" fill="#78D12E" />
<rect x="41" y="50" width="1" height="1" fill="#4B692F" />
<rect x="59" y="50" width="26" height="1" fill="#99E550" />
<rect x="88" y="50" width="7" height="1" fill="#99E550" />
<rect x="98" y="50" width="7" height="1" fill="#99E550" />
<rect x="117" y="50" width="7" height="1" fill="#99E550" />
<rect x="132" y="50" width="21" height="1" fill="#99E550" />
</svg>